<svg width="25" height="24" viewBox="0 0 25 24" fill="none" xmlns="http://www.w3.org/2000/svg">
<path d="M6.91797 2L3.91797 6V20C3.91797 20.5304 4.12868 21.0391 4.50376 21.4142C4.87883 21.7893 5.38754 22 5.91797 22H19.918C20.4484 22 20.9571 21.7893 21.3322 21.4142C21.7073 21.0391 21.918 20.5304 21.918 20V6L18.918 2H6.91797Z" stroke="#1E1E1E" stroke-width="1.5" stroke-linecap="round" stroke-linejoin="round"/>
<path d="M3.91797 6H21.918" stroke="#1E1E1E" stroke-width="1.5" stroke-linecap="round" stroke-linejoin="round"/>
<path d="M16.918 10C16.918 11.0609 16.4965 12.0783 15.7464 12.8284C14.9963 13.5786 13.9788 14 12.918 14C11.8571 14 10.8397 13.5786 10.0895 12.8284C9.3394 12.0783 8.91797 11.0609 8.91797 10" stroke="#1E1E1E" stroke-width="1.5" stroke-linecap="round" stroke-linejoin="round"/>
</svg>
