<svg width="24" height="20" viewBox="0 0 24 20" fill="none" xmlns="http://www.w3.org/2000/svg">
<path d="M20.7581 2.60999C20.2473 2.099 19.6409 1.69364 18.9734 1.41708C18.306 1.14052 17.5906 0.998169 16.8681 0.998169C16.1456 0.998169 15.4302 1.14052 14.7627 1.41708C14.0953 1.69364 13.4888 2.099 12.9781 2.60999L11.9181 3.66999L10.8581 2.60999C9.8264 1.5783 8.42712 0.998704 6.96809 0.998704C5.50905 0.998704 4.10978 1.5783 3.07809 2.60999C2.0464 3.64169 1.4668 5.04096 1.4668 6.49999C1.4668 7.95903 2.0464 9.3583 3.07809 10.39L4.13809 11.45L11.9181 19.23L19.6981 11.45L20.7581 10.39C21.2691 9.87924 21.6744 9.27281 21.951 8.60535C22.2276 7.93789 22.3699 7.22248 22.3699 6.49999C22.3699 5.77751 22.2276 5.0621 21.951 4.39464C21.6744 3.72718 21.2691 3.12075 20.7581 2.60999Z" stroke="#1E1E1E" stroke-width="1.5" stroke-linecap="round" stroke-linejoin="round"/>
</svg>
